<svg xmlns="http://www.w3.org/2000/svg" xmlns:xlink="http://www.w3.org/1999/xlink" viewBox="0 0 4945.45 1612.21"><defs><style>.cls-1{fill:url(#Безымянный_градиент_20);}.cls-2{fill:#fbb03b;}.cls-3{fill:#d4272d;}</style><linearGradient id="Безымянный_градиент_20" x1="160.16" y1="1318.9" x2="1573.57" y2="196.94" gradientUnits="userSpaceOnUse"><stop offset="0" stop-color="#11131e"/><stop offset="1" stop-color="#2a1419"/></linearGradient></defs><g id="Слой_2" data-name="Слой 2"><g id="Слой_1-2" data-name="Слой 1"><g id="Main"><path class="cls-1" d="M1462.7,612.86a546.84,546.84,0,0,1-14.23-58.18V334.85c0-47.27-21.3-88.19-53.84-116.42-28.25-33-69.47-54.69-117.16-54.69H1056.92a543.89,543.89,0,0,1-57.57-14.12C910.45,122.18,854.26,75.79,847,0H765.17C758,75.79,701.76,122.18,612.86,149.62a544.3,544.3,0,0,1-57.56,14.12H334.85c-47.49,0-88.57,21.5-116.81,54.3-32.8,28.24-54.3,69.32-54.3,116.81V555.3a544.3,544.3,0,0,1-14.12,57.56C122.18,701.76,75.79,758,0,765.17V847c75.79,7.22,122.18,63.41,149.62,152.31a543.89,543.89,0,0,1,14.12,57.57v220.55c0,47.69,21.68,88.91,54.69,117.16,28.23,32.54,69.15,53.84,116.42,53.84H554.68a543.84,543.84,0,0,1,58.18,14.23c88.9,27.44,145.09,73.72,152.31,149.51H847c7.22-75.79,63.41-122.07,152.31-149.51a544.43,544.43,0,0,1,58.18-14.23h219.94c47.47,0,88.53-21.48,116.77-54.24,32.76-28.24,54.23-69.29,54.23-116.76V1057.53a546.84,546.84,0,0,1,14.23-58.18c27.44-88.9,73.72-145.09,149.51-152.31V765.17C1536.42,758,1490.14,701.76,1462.7,612.86Z"/></g><path class="cls-2" d="M587.5,516.14q87.72-89.53,223.23-89.53,181.32,0,265.16,119.89,46.3,67.31,49.72,135.11h-150Q961,629,938.23,602.23q-40.79-47.62-120.89-47.62-81.57,0-128.64,66.81T641.61,810.53q0,122.29,49.6,183.18t126.1,60.9q78.39,0,119.55-52,22.73-28,37.75-83.95h150q-19.53,118.5-99.75,192.75t-205.6,74.25q-155.1,0-243.87-100.35-88.78-100.83-88.78-276.45Q486.61,618.94,587.5,516.14Z"/><path class="cls-3" d="M1856.85,941.61q7,49.68,27.67,74.25,37.73,44.76,129.34,44.75,54.84,0,89.06-11.82,64.92-22.63,64.93-84.15,0-35.94-31.9-55.63-31.92-19.17-100.89-34l-78.54-17.25q-115.83-25.65-158.83-55.67-72.84-50.21-72.84-157.05,0-97.45,71.67-161.95t210.58-64.5q116,0,197.87,60.73t85.88,176.27h-146q-4-65.33-58.43-92.83-36.26-18.16-90.14-18.17-59.92,0-95.68,23.6t-35.75,65.9q0,38.85,35.25,58,22.64,12.79,96.31,30l127.28,30.08q83.67,19.74,125.37,52.67,64.79,51.15,64.79,148,0,99.33-76.82,165t-217,65.66q-143.18,0-225.2-64.55t-82-177.45Z"/><path class="cls-3" d="M2948.24,440.61v128h-218v597h-152v-597h-218v-128Z"/><path class="cls-3" d="M3570.65,568.61H3187.12v154h352.06v126H3187.12v187h401.23v130H3039.12v-725h531.53Z"/><path class="cls-3" d="M3914.45,440.61h170.94l255.94,725h-164.2l-47.71-149H3862.64l-49.17,149H3655.55Zm-10.56,451h185.49L3998,606.36Z"/><path class="cls-3" d="M4433.45,440.61h151v595h361v130h-512Z"/></g></g></svg>